<svg id="ebAXpE9kJRY1" xmlns="http://www.w3.org/2000/svg" xmlns:xlink="http://www.w3.org/1999/xlink" viewBox="0 0 72 72" shape-rendering="geometricPrecision" text-rendering="geometricPrecision" project-id="cc5959dbb1c0486daae6435c41a10cde" export-id="5fcbdbace29d40109c155be47be3f5d9" cached="false"><g><path d="M68,4v64h-64L4,4h64Zm4-4L0,0v72h72v-72Z" fill="#b3b3b3"/><path d="M12.923,10.9583h46.1539c.51,0,.9992.2026,1.3598.5633s.5633.8498.5633,1.3598v46.1538c0,.51-.2026.9992-.5633,1.3598s-.8498.5633-1.3598.5633h-46.1538c-.51,0-.9992-.2026-1.3598-.5633s-.5633-.8498-.5633-1.3598v-46.1539c0-.51.2026-.9991.5632-1.3598s.8498-.5632,1.3598-.5632v0Z" fill="none" stroke="#00a5ff" stroke-width="0.1" stroke-miterlimit="10"/><path d="M53.7463,4h-35.4926C17.009,4,16,5.009,16,6.2537v59.4926C16,66.991,17.009,68,18.2537,68h35.4926C54.991,68,56,66.991,56,65.7463v-59.4926C56,5.009,54.991,4,53.7463,4Z" fill="none" stroke="#00a5ff" stroke-width="0.1" stroke-miterlimit="10"/><path d="M68,53.7463v-35.4926C68,17.009,66.991,16,65.7463,16h-59.4926C5.009,16,4,17.009,4,18.2537v35.4926C4,54.991,5.009,56,6.2537,56h59.4926C66.991,56,68,54.991,68,53.7463Z" fill="none" stroke="#00a5ff" stroke-width="0.1" stroke-miterlimit="10"/><path d="M36,65c16.0163,0,29-12.9837,29-29s-12.9837-29-29-29-29,12.9837-29,29s12.9837,29,29,29Z" fill="none" stroke="#00a5ff" stroke-width="0.1" stroke-miterlimit="10"/></g><g><g><path d="M40.7856,21.5333c0,0-1.3699.8902-5.4221,1.5403-.1434.023.3708-1.3663.3708-1.3663l4.0062-.9993m2.4064-9.76h3.7013c0,.0254.0002.0507.0002.0761c0,2.5601-.9327,4.9505-2.7919,7.163-2.2436,2.6302-4.9573,4.1501-7.9001,3.9102-.0375-.3071-.0592-.6303-.0592-.97c0-2.4577,1.0669-5.0879,2.9617-7.2385.9459-1.0889,2.149-1.9943,3.608-2.7165.161-.0787.321-.1535.48-.2243ZM16.2286,30.8554c.1901-.3972,1.915602-3.43505,2.139602-3.81035c1.1637-1.9916,1.712998-.91105,3.650598-2.06435s2.3299-1.2277,4.5845-1.2653c1.2337,0,2.8016.6472,4.812,1.3992c2.0047.7546,3.4937,1.0807,4.0581,1.0807.4219,0,1.8519-.3025,4.276-1.1945c2.2925-.8272,4.2273-1.2043,5.8123-1.0693c4.2949.3475,6.1665,1.015,8.3124,4.0737-1.2833.7797-3.367631,4.278774-4.217731,5.266774l-.380779,1.95449-.03765,4.568528l1.993268,4.787196L55.578216,48.8874l-1.894445,5.628944-2.596405,3.773796-4.382874,3.508965-4.932542-.653577-5.605995-1.528262-5.606897,1.11889-4.402843.631417-3.491423-2.377716-2.242876-2.752691-1.743251-2.532669-2.266149-4.203813-1.361528-3.13777-.385752-3.323392-.217471-2.756883-.129764-3.099876.313273-2.485278.615642-2.082035.981684-1.76005Z" fill="#3f3f3f"/></g></g><g><path d="M35.1564,22.0973c-.0375-.3071-.0592-.6303-.0592-.97c0-2.4577,1.0669-5.0879,2.9617-7.2385.946-1.0889,2.1491-1.9943,3.608-2.7165c1.4558-.7115,2.8329-1.1049,4.128-1.1723.0378.3422.0535.6845.0535,1.0241c0,2.5601-.9327,4.9505-2.7918,7.163-.8303.9733-1.725,1.7946-2.6718,2.4309m15.314,30.2229c-.772,1.7884-1.6858,3.4347-2.7446,4.9483-1.4432,2.0633-2.6249,3.4915-3.5356,4.2847-1.4117,1.3018-2.9242,1.9685-4.5439,2.0064-1.1627,0-2.565-.3317-4.1972-1.0048-1.6377-.6699-3.1426-1.0016-4.5187-1.0016-1.4432,0-2.9911.3317-4.6466,1.0016-1.6582.6731-2.9939,1.0238-4.0152,1.0586-1.5532.0663-3.1013-.6194-4.6466-2.0602-.9863-.8627-2.22-2.3415-3.6978-4.4364-1.5857-2.2372-2.8893-4.8314-3.9106-7.7889-1.0937-3.1946-1.642-6.2881-1.642-9.2829c0-3.4306.7393-6.3895,2.22-8.869c1.1637-1.9916,2.7118-3.5627,4.6494-4.716s4.0312-1.7411,6.2858-1.7787c1.2337,0,2.8515.3827,4.8619,1.1347c2.0047.7546,3.292,1.1372,3.8563,1.1372.4219,0,1.8519-.4474,4.2761-1.3394c2.2924-.8272,4.2272-1.1698,5.8122-1.0348c4.2949.3475,7.5217,2.0453,9.6676,5.104-3.8412,2.3338-5.7413,5.6027-5.7035,9.796.0346,3.2663,1.2163,5.9844,3.5387,8.1426c1.0524,1.0016,2.2278,1.7758,3.5355,2.3256-.2836.8247-.5829,1.6146-.9012,2.373Z" fill="none" stroke="#000" stroke-width="2" stroke-linecap="round" stroke-linejoin="round"/></g></svg>
