<svg style="clip-rule:evenodd;fill-rule:evenodd;stroke-miterlimit:10" version="1.1" viewBox="0 0 300 300" xmlns="http://www.w3.org/2000/svg" xmlns:serif="http://www.serif.com/">
 <g transform="translate(-337.5)">
  <g transform="matrix(4.1667 0 0 4.1667 337.5 0)" serif:id="1F202">
   <rect width="72" height="72" style="fill:none"/>
   <g id="grid">
    <path d="m0 72h72v-72h-72v72zm4-68h64.001v64.001h-64.001v-64.001z" style="fill-rule:nonzero;fill:#b3b3b3"/>
    <g transform="translate(59.077 10.958)">
     <path d="m0 50h-46.154c-1.062 0-1.923-0.86-1.923-1.923v-46.154c0-1.062 0.861-1.923 1.923-1.923h46.154c1.062 0 1.923 0.861 1.923 1.923v46.154c0 1.063-0.861 1.923-1.923 1.923z" style="fill:none;stroke-width:.1px;stroke:#00a5ff"/>
    </g>
    <g transform="translate(53.746 4)">
     <path d="m0 64h-35.492c-1.245 0-2.254-1.009-2.254-2.254v-59.492c0-1.245 1.009-2.254 2.254-2.254h35.492c1.245 0 2.254 1.009 2.254 2.254v59.492c0 1.245-1.009 2.254-2.254 2.254z" style="fill:none;stroke-width:.1px;stroke:#00a5ff"/>
    </g>
    <g transform="translate(4 18.254)">
     <path d="m0 35.492v-35.492c0-1.245 1.009-2.254 2.254-2.254h59.492c1.245 0 2.254 1.009 2.254 2.254v35.492c0 1.245-1.009 2.254-2.254 2.254h-59.492c-1.245 0-2.254-1.009-2.254-2.254z" style="fill:none;stroke-width:.1px;stroke:#00a5ff"/>
    </g>
    <g transform="matrix(0,-1,-1,0,36,7)">
     <circle cx="-29" r="29" style="fill:none;stroke-width:.1px;stroke:#00a5ff"/>
    </g>
   </g>
   <g transform="matrix(.26087 0 0 .26087 -91.174 -3.1725)">
    <g id="color">
     <rect x="391.67" y="54.167" width="191.67" height="191.67" style="fill:#e5604d"/>
    </g>
   </g>
   <g id="line" transform="matrix(.29014 0 0 .29014 -105.04 -7.1989)">
    <g transform="matrix(.8991 0 0 .8991 47.805 13.877)">
     <rect x="391.67" y="54.167" width="191.67" height="191.67" style="fill:none;stroke-linecap:round;stroke-linejoin:round;stroke-miterlimit:1.5;stroke-width:7.67px;stroke:#000"/>
    </g>
    <g transform="matrix(1.0179 0 0 1.0179 -8.3934 -3.0171)">
     <path d="m433.95 128.79 105.59-0.143" style="fill:none;stroke-linecap:round;stroke-linejoin:round;stroke-miterlimit:1.5;stroke-width:6.77px;stroke:#fff"/>
    </g>
    <g transform="matrix(1.0179 0 0 1.0179 -8.3934 -3.0171)">
     <path d="m460.42 101.78v59.249" style="fill:none;stroke-linecap:round;stroke-linejoin:round;stroke-miterlimit:1.5;stroke-width:6.77px;stroke:#fff"/>
    </g>
    <g transform="matrix(1.0179 0 0 1.0179 44.536 -3.0171)">
     <path d="m460.42 101.67 0.083 31.863s4.989 59.123-38.596 69.321" style="fill:none;stroke-linecap:round;stroke-linejoin:round;stroke-miterlimit:1.5;stroke-width:6.77px;stroke:#fff"/>
    </g>
   </g>
  </g>
 </g>
</svg>
