<svg style="clip-rule:evenodd;fill-rule:evenodd;stroke-miterlimit:10" version="1.1" viewBox="0 0 300 300" xmlns="http://www.w3.org/2000/svg" xmlns:serif="http://www.serif.com/">
 <g transform="scale(4.1667)" serif:id="1F201">
  <rect width="72" height="72" style="fill:none"/>
  <g id="grid" transform="scale(.24)">
   <g transform="matrix(4.1667 0 0 4.1667 223.94 16.667)">
    <path d="m0 64h-35.492c-1.245 0-2.254-1.009-2.254-2.254v-59.492c0-1.245 1.009-2.254 2.254-2.254h35.492c1.245 0 2.254 1.009 2.254 2.254v59.492c0 1.245-1.009 2.254-2.254 2.254z" style="fill:none;stroke-width:.1px;stroke:#00a5ff"/>
   </g>
   <g transform="scale(4.1667)">
    <path d="m0 72h72v-72h-72v72zm4-68h64.001v64.001h-64.001v-64.001z" style="fill-rule:nonzero;fill:#b3b3b3"/>
   </g>
   <g transform="matrix(4.1667 0 0 4.1667 246.15 45.658)">
    <path d="m0 50h-46.154c-1.062 0-1.923-0.86-1.923-1.923v-46.154c0-1.062 0.861-1.923 1.923-1.923h46.154c1.062 0 1.923 0.861 1.923 1.923v46.154c0 1.063-0.861 1.923-1.923 1.923z" style="fill:none;stroke-width:.1px;stroke:#00a5ff"/>
   </g>
   <g transform="matrix(4.1667 0 0 4.1667 16.667 76.059)">
    <path d="m0 35.492v-35.492c0-1.245 1.009-2.254 2.254-2.254h59.492c1.245 0 2.254 1.009 2.254 2.254v35.492c0 1.245-1.009 2.254-2.254 2.254h-59.492c-1.245 0-2.254-1.009-2.254-2.254z" style="fill:none;stroke-width:.1px;stroke:#00a5ff"/>
   </g>
   <g transform="matrix(0 -4.1667 -4.1667 0 150 29.167)">
    <circle cx="-29" r="29" style="fill:none;stroke-width:.1px;stroke:#00a5ff"/>
   </g>
  </g>
  <g transform="matrix(.25 0 0 .26885 -.4584 -.71756)">
   <g id="color">
    <rect x="45.834" y="68.2" width="200" height="136.43" style="fill:#97d2f3"/>
   </g>
  </g>
  <g id="line" transform="matrix(.22305 0 0 .22305 -1.0817 .30722)">
   <g transform="matrix(1.1208 0 0 1.2053 2.7944 -4.5945)">
    <rect x="45.834" y="68.2" width="200" height="136.43" style="fill:none;stroke-linecap:round;stroke-linejoin:round;stroke-miterlimit:1.5;stroke-width:7.7px;stroke:#000"/>
   </g>
   <g transform="matrix(1.076 0 0 1.076 4.8496 -1.3774)">
    <path d="m74.586 115.2h52.974c1.326 0 2.598 0.527 3.536 1.465s1.464 2.209 1.464 3.535v68.789h-57.974" style="fill:none;stroke-linecap:round;stroke-linejoin:round;stroke-miterlimit:1.5;stroke-width:8.33px;stroke:#000"/>
   </g>
   <g transform="matrix(1.076 0 0 1.076 104.76 -1.3774)">
    <path d="m74.586 115.2h52.974c1.326 0 2.598 0.527 3.536 1.465s1.464 2.209 1.464 3.535v68.789h-57.974" style="fill:none;stroke-linecap:round;stroke-linejoin:round;stroke-miterlimit:1.5;stroke-width:8.33px;stroke:#000"/>
   </g>
  </g>
 </g>
</svg>
