<svg style="clip-rule:evenodd;fill-rule:evenodd;stroke-miterlimit:10" version="1.1" viewBox="0 0 300 300" xmlns="http://www.w3.org/2000/svg" xmlns:serif="http://www.serif.com/">
 <g transform="translate(-1350)">
  <g id="_1F22F" transform="matrix(4.1667 0 0 4.1667 1350 0)" serif:id="1F22F">
   <rect width="72" height="72" style="fill:none"/>
   <g id="grid">
    <path d="m0 72h72v-72h-72v72zm4-68h64.001v64.001h-64.001v-64.001z" style="fill-rule:nonzero;fill:#b3b3b3"/>
    <g transform="translate(59.077 10.958)">
     <path d="m0 50h-46.154c-1.062 0-1.923-0.86-1.923-1.923v-46.154c0-1.062 0.861-1.923 1.923-1.923h46.154c1.062 0 1.923 0.861 1.923 1.923v46.154c0 1.063-0.861 1.923-1.923 1.923z" style="fill:none;stroke-width:.1px;stroke:#00a5ff"/>
    </g>
    <g transform="translate(53.746 4)">
     <path d="m0 64h-35.492c-1.245 0-2.254-1.009-2.254-2.254v-59.492c0-1.245 1.009-2.254 2.254-2.254h35.492c1.245 0 2.254 1.009 2.254 2.254v59.492c0 1.245-1.009 2.254-2.254 2.254z" style="fill:none;stroke-width:.1px;stroke:#00a5ff"/>
    </g>
    <g transform="translate(4 18.254)">
     <path d="m0 35.492v-35.492c0-1.245 1.009-2.254 2.254-2.254h59.492c1.245 0 2.254 1.009 2.254 2.254v35.492c0 1.245-1.009 2.254-2.254 2.254h-59.492c-1.245 0-2.254-1.009-2.254-2.254z" style="fill:none;stroke-width:.1px;stroke:#00a5ff"/>
    </g>
    <g transform="matrix(0,-1,-1,0,36,7)">
     <circle cx="-29" r="29" style="fill:none;stroke-width:.1px;stroke:#00a5ff"/>
    </g>
   </g>
   <g id="color" transform="matrix(.26109 0 0 .26109 -91.302 -3.1844)">
    <rect x="391.67" y="54.167" width="191.67" height="191.67" style="fill:#b3cc47"/>
   </g>
   <g id="line" transform="matrix(1.0879 0 0 1.0879 -3.1844 -3.1844)">
    <g transform="matrix(.24 0 0 .24 -81 0)">
     <rect x="391.67" y="54.167" width="191.67" height="191.67" style="fill:none;stroke-linecap:round;stroke-linejoin:round;stroke-miterlimit:1.5;stroke-width:7.66px;stroke:#000"/>
    </g>
    <g transform="matrix(.22433 0 0 .22433 -300.31 2.3284)">
     <path d="m1555 93.081c-19.205 6.548-60.872 13.89-60.872 13.89" style="fill:none;stroke-linecap:round;stroke-linejoin:round;stroke-miterlimit:1.5;stroke-width:8.2px;stroke:#000"/>
    </g>
    <g transform="matrix(.22433 0 0 .22433 -300.31 2.3284)">
     <path d="m1492.9 82.295s1e-3 34.305 1e-3 47.229c1e-3 2.746 2.114 5.03 4.852 5.243 7.825 0.617 23.272 1.751 32.363 1.842 21.906 0.222 28.277 1.837 34.518-2.295 4.062-2.689 4.245-14.695 4.654-19.664" style="fill:none;stroke-linecap:round;stroke-linejoin:round;stroke-miterlimit:1.5;stroke-width:8.2px;stroke:#000"/>
    </g>
    <g transform="matrix(.22433 0 0 .22433 -300.31 2.777)">
     <path d="m1497.4 185h59.774" style="fill:none;stroke-linecap:round;stroke-linejoin:round;stroke-miterlimit:1.5;stroke-width:8.2px;stroke:#000"/>
    </g>
    <g transform="matrix(.22433 0 0 .22433 -300.31 2.3284)">
     <path d="m1493.3 191.64v-29.969c0-2.9 2.347-5.252 5.246-5.26 9.483-0.025 47.489-0.125 56.981-0.15 1.397-4e-3 2.739 0.549 3.728 1.536 0.989 0.986 1.545 2.326 1.545 3.724v27.226" style="fill:none;stroke-linecap:round;stroke-linejoin:round;stroke-miterlimit:1.5;stroke-width:8.2px;stroke:#000"/>
    </g>
    <g transform="matrix(.22433 0 0 .22433 -300.53 2.3284)">
     <path d="m1494.3 183.06v30.429c0 2.905 2.355 5.26 5.26 5.26h56.981c1.395 0 2.732-0.554 3.719-1.541 0.986-0.986 1.54-2.324 1.54-3.719v-30.819" style="fill:none;stroke-linecap:round;stroke-linejoin:round;stroke-miterlimit:1.5;stroke-width:8.2px;stroke:#000"/>
    </g>
    <g transform="matrix(.24261 0 0 .24261 -327.9 -.46182)">
     <path d="m1435.5 116.67h41.537" style="fill:none;stroke-linecap:round;stroke-linejoin:round;stroke-miterlimit:1.5;stroke-width:7.45px;stroke:#000"/>
    </g>
    <g transform="matrix(.22433 0 0 .22433 -300.31 10.853)">
     <path d="m1429 129.28 47.215-15.664" style="fill:none;stroke-linecap:round;stroke-linejoin:round;stroke-miterlimit:1.5;stroke-width:8.2px;stroke:#000"/>
    </g>
    <g transform="matrix(.22433 0 0 .22433 -300.53 1.8797)">
     <path d="m1456.3 82.825s-0.019 92.051-0.026 125.73c0 3.225-1.282 6.316-3.563 8.595-2.281 2.278-5.374 3.557-8.598 3.555-3.45-3e-3 -6.289-5e-3 -6.289-5e-3" style="fill:none;stroke-linecap:round;stroke-linejoin:round;stroke-miterlimit:1.5;stroke-width:8.2px;stroke:#000"/>
    </g>
    <g transform="matrix(.24912 0 0 .24769 -337.79 -1.5495)">
     <path d="m1556 161.76v48.012c0 2.524-2.038 4.573-4.547 4.573h-51.69c-2.509 0-4.546-2.049-4.546-4.573v-48.012c0-2.524 2.037-4.573 4.546-4.573h51.69c2.509 0 4.547 2.049 4.547 4.573z" style="fill-opacity:0;stroke-linecap:round;stroke-linejoin:round;stroke-miterlimit:1.5;stroke-width:7.4px;stroke:#000"/>
    </g>
   </g>
  </g>
 </g>
</svg>
