<svg style="clip-rule:evenodd;fill-rule:evenodd;stroke-miterlimit:10" version="1.1" viewBox="0 0 300 300" xmlns="http://www.w3.org/2000/svg" xmlns:serif="http://www.serif.com/">
 <g transform="translate(-1350 -337.5)">
  <g transform="matrix(4.1667 0 0 4.1667 1350 337.5)" serif:id="1F238">
   <rect width="72" height="72" style="fill:none"/>
   <g id="grid" transform="matrix(1.087 0 0 1.087 -3.565 -3.1725)">
    <g transform="matrix(.92 0 0 .92 3.2798 2.9187)">
     <path d="m0 72h72v-72h-72v72zm4-68h64.001v64.001h-64.001v-64.001z" style="fill-rule:nonzero;fill:#b3b3b3"/>
    </g>
    <g transform="matrix(.92 0 0 .92 57.631 13)">
     <path d="m0 50h-46.154c-1.062 0-1.923-0.86-1.923-1.923v-46.153c0-1.063 0.861-1.924 1.923-1.924h46.154c1.062 0 1.923 0.861 1.923 1.924v46.153c0 1.063-0.861 1.923-1.923 1.923z" style="fill:none;stroke-width:.1px;stroke:#00a5ff"/>
    </g>
    <g transform="matrix(.92 0 0 .92 52.726 6.5987)">
     <path d="m0 64h-35.492c-1.245 0-2.254-1.009-2.254-2.254v-59.492c0-1.245 1.009-2.254 2.254-2.254h35.492c1.245 0 2.254 1.009 2.254 2.254v59.492c0 1.245-1.009 2.254-2.254 2.254z" style="fill:none;stroke-width:.1px;stroke:#00a5ff"/>
    </g>
    <g transform="matrix(.92 0 0 .92 6.9598 19.713)">
     <path d="m0 35.492v-35.492c0-1.245 1.009-2.254 2.254-2.254h59.492c1.245 0 2.254 1.009 2.254 2.254v35.492c0 1.245-1.009 2.254-2.254 2.254h-59.492c-1.245 0-2.254-1.009-2.254-2.254z" style="fill:none;stroke-width:.1px;stroke:#00a5ff"/>
    </g>
    <g transform="matrix(0 -.92 -.92 0 36.4 9.3587)">
     <circle cx="-29" r="29" style="fill:none;stroke-width:.1px;stroke:#00a5ff"/>
    </g>
   </g>
   <g id="color" transform="matrix(.26087 0 0 .26087 -91.608 -3.1725)">
    <rect x="391.67" y="54.167" width="191.67" height="191.67" style="fill:#fbea4b"/>
   </g>
   <g id="line" transform="matrix(.28412 0 0 .28412 -390.5 -102.71)">
    <g transform="matrix(.91816 0 0 .91816 1052 350.33)">
     <rect x="391.67" y="54.167" width="191.67" height="191.67" style="fill:none;stroke-linecap:round;stroke-linejoin:round;stroke-miterlimit:1.5;stroke-width:8.33px;stroke:#000"/>
    </g>
    <g transform="matrix(.95906 0 0 .95906 61.396 18.61)">
     <path d="m1444.4 477.86h108.71" style="fill:none;stroke-linecap:round;stroke-linejoin:round;stroke-miterlimit:1.5;stroke-width:7.34px;stroke:#000"/>
    </g>
    <g transform="matrix(.96374 0 0 .94722 54.644 25.777)">
     <path d="m1557.6 445.29v61.963c0 3.256-2.599 5.901-5.8 5.901h-104.9c-3.201 0-5.8-2.645-5.8-5.901v-61.963c0-3.257 2.599-5.901 5.8-5.901h104.9c3.201 0 5.8 2.644 5.8 5.901z" style="fill-opacity:0;stroke-linecap:round;stroke-linejoin:round;stroke-miterlimit:1.5;stroke-width:7.37px;stroke:#000"/>
    </g>
    <g transform="matrix(.95906 0 0 .95906 61.396 18.61)">
     <path d="m1498.8 420.27v138.44" style="fill:none;stroke-linecap:round;stroke-linejoin:round;stroke-miterlimit:1.5;stroke-width:7.34px;stroke:#000"/>
    </g>
   </g>
  </g>
 </g>
</svg>
