<svg style="clip-rule:evenodd;fill-rule:evenodd;stroke-miterlimit:10" version="1.1" viewBox="0 0 300 300" xmlns="http://www.w3.org/2000/svg" xmlns:serif="http://www.serif.com/">
 <g transform="translate(0 -337.5)">
  <g transform="matrix(4.1667 0 0 4.1667 0 337.5)" serif:id="1F239">
   <rect width="72" height="72" style="fill:none"/>
   <g id="grid">
    <path d="m0 72h72v-72h-72v72zm4-68h64.001v64.001h-64.001v-64.001z" style="fill-rule:nonzero;fill:#b3b3b3"/>
    <g transform="translate(59.077 10.958)">
     <path d="m0 50h-46.154c-1.062 0-1.923-0.86-1.923-1.923v-46.153c0-1.063 0.861-1.924 1.923-1.924h46.154c1.062 0 1.923 0.861 1.923 1.924v46.153c0 1.063-0.861 1.923-1.923 1.923z" style="fill:none;stroke-width:.1px;stroke:#00a5ff"/>
    </g>
    <g transform="translate(53.746 4)">
     <path d="m0 64h-35.492c-1.245 0-2.254-1.009-2.254-2.254v-59.492c0-1.245 1.009-2.254 2.254-2.254h35.492c1.245 0 2.254 1.009 2.254 2.254v59.492c0 1.245-1.009 2.254-2.254 2.254z" style="fill:none;stroke-width:.1px;stroke:#00a5ff"/>
    </g>
    <g transform="translate(4 18.254)">
     <path d="m0 35.492v-35.492c0-1.245 1.009-2.254 2.254-2.254h59.492c1.245 0 2.254 1.009 2.254 2.254v35.492c0 1.245-1.009 2.254-2.254 2.254h-59.492c-1.245 0-2.254-1.009-2.254-2.254z" style="fill:none;stroke-width:.1px;stroke:#00a5ff"/>
    </g>
    <g transform="matrix(0,-1,-1,0,36,7)">
     <circle cx="-29" r="29" style="fill:none;stroke-width:.1px;stroke:#00a5ff"/>
    </g>
   </g>
   <g id="color" transform="matrix(.26087 0 0 .26087 -91.174 -3.1725)">
    <rect x="391.67" y="54.167" width="191.67" height="191.67" style="fill:#fbea4b"/>
   </g>
   <g id="line" transform="matrix(1.087 0 0 1.087 -3.1305 -3.1725)">
    <g transform="matrix(.24 0 0 .24 -81 0)">
     <rect x="391.67" y="54.167" width="191.67" height="191.67" style="fill:none;stroke-linecap:round;stroke-linejoin:round;stroke-miterlimit:1.5;stroke-width:7.67px;stroke:#000"/>
    </g>
    <g transform="matrix(.25737 0 0 .26903 -2.5505 -94.147)">
     <path d="m157.81 514.46v25.333c0 1.842-1.563 3.338-3.489 3.338h-50.618c-1.925 0-3.488-1.496-3.488-3.338v-25.333c0-1.842 1.563-3.337 3.488-3.337h50.618c1.926 0 3.489 1.495 3.489 3.337z" style="fill-opacity:0;stroke-linecap:round;stroke-linejoin:round;stroke-miterlimit:1.5;stroke-width:6.99px;stroke:#000"/>
    </g>
    <g transform="matrix(.25151 0 0 .25151 -2.7836 -85.423)">
     <path d="m216.04 421.3s0.451 98.143 0.553 120.38c0.011 2.454-1.967 4.454-4.421 4.471-7.208 0.048-20.657 0.137-20.657 0.137" style="fill:none;stroke-linecap:round;stroke-linejoin:round;stroke-miterlimit:1.5;stroke-width:6.82px;stroke:#000"/>
    </g>
    <g transform="matrix(.25151 0 0 .25151 -1.2745 -85.423)">
     <path d="m183.81 436.01-0.059 76.125" style="fill:none;stroke-linecap:round;stroke-linejoin:round;stroke-miterlimit:1.5;stroke-width:6.82px;stroke:#000"/>
    </g>
    <g transform="matrix(.25151 0 0 .25151 -1.2745 -85.423)">
     <path d="m85.809 495.49h80.858" style="fill:none;stroke-linecap:round;stroke-linejoin:round;stroke-miterlimit:1.5;stroke-width:6.82px;stroke:#000"/>
    </g>
    <g transform="matrix(.25151 0 0 .25151 -1.2745 -85.423)">
     <path d="m126.25 417.82v15.134" style="fill:none;stroke-linecap:round;stroke-linejoin:round;stroke-miterlimit:1.5;stroke-width:7.32px;stroke:#000"/>
    </g>
    <g transform="matrix(.25151 0 0 .2455 -1.2745 -76.121)">
     <path d="m126.25 417.82v50.597" style="fill:none;stroke-linecap:round;stroke-linejoin:round;stroke-miterlimit:1.5;stroke-width:7.4px;stroke:#000"/>
    </g>
    <g transform="matrix(.25151 0 0 .25151 -1.2745 -81.147)">
     <path d="m96.809 458.49h57.858" style="fill:none;stroke-linecap:round;stroke-linejoin:round;stroke-miterlimit:1.5;stroke-width:7.32px;stroke:#000"/>
    </g>
    <g transform="matrix(.25151 0 0 .25151 -1.2745 -85.926)">
     <path d="m96.809 458.49h57.858" style="fill:none;stroke-linecap:round;stroke-linejoin:round;stroke-miterlimit:1.5;stroke-width:7.32px;stroke:#000"/>
    </g>
    <g transform="matrix(.25151 0 0 .25151 -1.2745 -85.423)">
     <path d="m86.083 449.51v-12.108c0-2.457 1.992-4.449 4.449-4.45 13.895-6e-3 56.386-0.024 70.304-0.029 1.183-1e-3 2.318 0.47 3.153 1.307 0.836 0.838 1.303 1.974 1.299 3.157-0.015 5.013-0.038 12.454-0.038 12.454" style="fill:none;stroke-linecap:round;stroke-linejoin:round;stroke-miterlimit:1.5;stroke-width:7.32px;stroke:#000"/>
    </g>
   </g>
  </g>
 </g>
</svg>
