<svg id="emoji" version="1.1" viewBox="0 0 72 72" xmlns="http://www.w3.org/2000/svg">
 <g id="grid">
  <path d="M68,4V68H4V4H68m4-4H0V72H72V0Z" fill="#b3b3b3"/>
  <path d="m12.92 10.96h46.15a1.923 1.923 0 0 1 1.923 1.923v46.15a1.923 1.923 0 0 1-1.923 1.923h-46.15a1.923 1.923 0 0 1-1.923-1.923v-46.15a1.923 1.923 0 0 1 1.923-1.923z" fill="none" stroke="#00a5ff" stroke-miterlimit="10" stroke-width=".1"/>
  <rect x="16" y="4" width="40" height="64" rx="2.254" fill="none" stroke="#00a5ff" stroke-miterlimit="10" stroke-width=".1"/>
  <rect transform="translate(72) rotate(90)" x="16" y="4" width="40" height="64" rx="2.254" fill="none" stroke="#00a5ff" stroke-miterlimit="10" stroke-width=".1"/>
  <circle cx="36" cy="36" r="29" fill="none" stroke="#00a5ff" stroke-miterlimit="10" stroke-width=".1"/>
 </g>
 <g id="color" transform="matrix(.2609 0 0 .2609 -91.17 -3.172)">
  <rect x="391.7" y="54.17" width="191.7" height="191.7" fill="#ea5a47" stroke-width="0"/>
  <path transform="matrix(.9804 0 0 .9804 -649.2 -.9503)" d="m1206 161.5s-52.68-0.01-77.67 0" clip-rule="evenodd" fill="none" stroke="#fff" stroke-linecap="square" stroke-linejoin="round" stroke-miterlimit="1.5" stroke-width="7.82"/>
  <path transform="matrix(.9804 0 0 .9804 -648.3 -2.212)" d="m1127 222.9-0.096-87.05 81.06-0.166s-0.013 56.26-0.019 78.34c-1e-3 4.83-3.916 8.744-8.746 8.744h-19.26" clip-rule="evenodd" fill="none" stroke="#fff" stroke-linecap="round" stroke-linejoin="round" stroke-miterlimit="1.5" stroke-width="7.82px"/>
  <path transform="matrix(.9804 0 0 .9804 -648.3 -2.212)" d="m1092 169.5c41.93-30.44 56.52-83.44 56.52-83.44" clip-rule="evenodd" fill="none" stroke="#fff" stroke-linecap="round" stroke-linejoin="round" stroke-miterlimit="1.5" stroke-width="7.82px"/>
  <path transform="matrix(.9804 0 0 .9804 -648.3 -2.212)" d="m1094 106.5 131-0.035" clip-rule="evenodd" fill="none" stroke="#fff" stroke-linecap="round" stroke-linejoin="round" stroke-miterlimit="1.5" stroke-width="7.82px"/>
  <path transform="matrix(.9804 0 0 .9804 -649.2 26.5)" d="m1206 161s-52.68 0.107-77.67 0.118" clip-rule="evenodd" fill="none" stroke="#fff" stroke-linecap="square" stroke-linejoin="round" stroke-miterlimit="1.5" stroke-width="7.82px"/>
 </g>
 <g id="line" transform="matrix(.279 0 0 .279 -287.3 -.1919)">
  <rect transform="matrix(.9352 0 0 .9352 703.1 -10.68)" x="391.7" y="54.17" width="191.7" height="191.7" clip-rule="evenodd" fill="none" stroke="#000" stroke-linecap="round" stroke-linejoin="round" stroke-miterlimit="1.5" stroke-width="7.667"/>
 </g>
</svg>
