<svg style="clip-rule:evenodd;fill-rule:evenodd;stroke-miterlimit:10" version="1.1" viewBox="0 0 300 300" xmlns="http://www.w3.org/2000/svg" xmlns:serif="http://www.serif.com/">
 <g transform="translate(-1012.5 -675)">
  <g id="_1F23A" transform="matrix(4.1667 0 0 4.1667 1012.5 675)" serif:id="1F23A">
   <rect width="72" height="72" style="fill:none"/>
   <clipPath id="_clip1">
    <rect width="72" height="72"/>
   </clipPath>
   <g clip-path="url(#_clip1)">
    <g id="grid" transform="matrix(1.087 0 0 1.087 -3.1304 -3.1725)">
     <g transform="matrix(.92 0 0 .92 2.88 2.9187)">
      <path d="m0 72h72v-72h-72v72zm4-68h64.001v64.001h-64.001v-64.001z" style="fill-rule:nonzero;fill:#b3b3b3"/>
     </g>
     <g transform="matrix(.92 0 0 .92 57.231 13)">
      <path d="m0 50h-46.154c-1.062 0-1.923-0.86-1.923-1.923v-46.153c0-1.063 0.861-1.924 1.923-1.924h46.154c1.062 0 1.923 0.861 1.923 1.924v46.153c0 1.063-0.861 1.923-1.923 1.923z" style="fill:none;stroke-width:.1px;stroke:#00a5ff"/>
     </g>
     <g transform="matrix(.92 0 0 .92 52.326 6.5987)">
      <path d="m0 64h-35.492c-1.245 0-2.254-1.009-2.254-2.254v-59.492c0-1.245 1.009-2.254 2.254-2.254h35.492c1.245 0 2.254 1.009 2.254 2.254v59.492c0 1.245-1.009 2.254-2.254 2.254z" style="fill:none;stroke-width:.1px;stroke:#00a5ff"/>
     </g>
     <g transform="matrix(.92 0 0 .92 6.56 19.713)">
      <path d="m0 35.492v-35.492c0-1.245 1.009-2.254 2.254-2.254h59.492c1.245 0 2.254 1.009 2.254 2.254v35.492c0 1.245-1.009 2.254-2.254 2.254h-59.492c-1.245 0-2.254-1.009-2.254-2.254z" style="fill:none;stroke-width:.1px;stroke:#00a5ff"/>
     </g>
     <g transform="matrix(0 -.92 -.92 0 36 9.3587)">
      <circle cx="-29" r="29" style="fill:none;stroke-width:.1px;stroke:#00a5ff"/>
     </g>
    </g>
    <g id="color" transform="matrix(.26087 0 0 .26087 -91.174 -3.1725)">
     <rect x="391.67" y="54.167" width="191.67" height="191.67" style="fill:#b29ac6"/>
    </g>
    <g id="line" transform="matrix(.35115 0 0 .33518 -253.58 -223.12)">
     <g transform="matrix(.7429 0 0 .77829 462.51 656.19)">
      <rect x="391.67" y="54.167" width="191.67" height="191.67" style="fill:none;stroke-linecap:round;stroke-linejoin:round;stroke-miterlimit:1.5;stroke-width:7.67px;stroke:#000"/>
     </g>
     <g transform="matrix(.78179 0 0 .81904 179.77 101.91)">
      <path d="m874.93 755.81s-9.866 13.468-19.228 23.366" style="fill:none;stroke-linecap:round;stroke-linejoin:round;stroke-miterlimit:1.5;stroke-width:7.29px;stroke:#000"/>
     </g>
     <g transform="matrix(.78179 0 0 .81904 179.77 101.91)">
      <path d="m774.06 755.36s11.136 15.886 13.941 21.613" style="fill:none;stroke-linecap:round;stroke-linejoin:round;stroke-miterlimit:1.5;stroke-width:7.29px;stroke:#000"/>
     </g>
     <g transform="matrix(.78179 0 0 .81904 210.72 100.1)">
      <path d="m774.06 755.36s10.246 16.386 12.98 23.825" style="fill:none;stroke-linecap:round;stroke-linejoin:round;stroke-miterlimit:1.5;stroke-width:7.29px;stroke:#000"/>
     </g>
     <g transform="matrix(.78179 0 0 .81904 179.77 101.91)">
      <path d="m763.13 802.17s0.104-11.322 0.165-17.858c0.023-2.504 2.053-4.526 4.557-4.54 19.298-0.102 94.739-0.503 114.21-0.606 1.22-7e-3 2.391 0.473 3.256 1.333s1.351 2.03 1.351 3.249v18.422" style="fill:none;stroke-linecap:round;stroke-linejoin:round;stroke-miterlimit:1.5;stroke-width:7.29px;stroke:#000"/>
     </g>
     <g transform="matrix(.78179 0 0 .81904 179.77 101.91)">
      <path d="m814.57 851.26 6.954-22.308" style="fill:none;stroke-linecap:round;stroke-linejoin:round;stroke-miterlimit:1.5;stroke-width:7.29px;stroke:#000"/>
     </g>
     <g transform="matrix(.78426 0 0 .84328 177.3 81.745)">
      <path d="m865.95 802.34v24.371c0 1.281-1.067 2.321-2.382 2.321h-76.807c-1.314 0-2.382-1.04-2.382-2.321v-24.371c0-1.281 1.068-2.321 2.382-2.321h76.807c1.315 0 2.382 1.04 2.382 2.321z" style="fill-opacity:0;stroke-linecap:round;stroke-linejoin:round;stroke-miterlimit:1.5;stroke-width:7.17px;stroke:#000"/>
     </g>
     <g transform="matrix(.96446 0 0 .96446 29.312 27.785)">
      <path d="m865.95 802.34v24.371c0 1.281-0.992 2.321-2.215 2.321h-77.14c-1.223 0-2.216-1.04-2.216-2.321v-24.371c0-1.281 0.993-2.321 2.216-2.321h77.14c1.223 0 2.215 1.04 2.215 2.321z" style="fill-opacity:0;stroke-linecap:round;stroke-linejoin:round;stroke-miterlimit:1.5;stroke-width:6.04px;stroke:#000"/>
     </g>
    </g>
   </g>
  </g>
 </g>
</svg>
