<svg style="clip-rule:evenodd;fill-rule:evenodd;stroke-miterlimit:10" version="1.1" viewBox="0 0 300 300" xmlns="http://www.w3.org/2000/svg" xmlns:serif="http://www.serif.com/">
 <g transform="translate(-675)">
  <g transform="matrix(4.1667 0 0 4.1667 675 0)" serif:id="1F237">
   <rect width="72" height="72" style="fill:none"/>
   <g id="grid" transform="matrix(.24 0 0 .24 -162 0)">
    <g transform="matrix(4.1667 0 0 4.1667 675 0)">
     <path d="m0 72h72v-72h-72v72zm4-68h64.001v64.001h-64.001v-64.001z" style="fill-rule:nonzero;fill:#b3b3b3"/>
    </g>
    <g transform="matrix(4.1667 0 0 4.1667 921.15 45.658)">
     <path d="m0 50h-46.154c-1.062 0-1.923-0.86-1.923-1.923v-46.153c0-1.063 0.861-1.924 1.923-1.924h46.154c1.062 0 1.923 0.861 1.923 1.924v46.153c0 1.063-0.861 1.923-1.923 1.923z" style="fill:none;stroke-width:.1px;stroke:#00a5ff"/>
    </g>
    <g transform="matrix(4.1667 0 0 4.1667 898.94 16.667)">
     <path d="m0 64h-35.492c-1.245 0-2.254-1.009-2.254-2.254v-59.492c0-1.245 1.009-2.254 2.254-2.254h35.492c1.245 0 2.254 1.009 2.254 2.254v59.492c0 1.245-1.009 2.254-2.254 2.254z" style="fill:none;stroke-width:.1px;stroke:#00a5ff"/>
    </g>
    <g transform="matrix(4.1667 0 0 4.1667 691.67 76.059)">
     <path d="m0 35.492v-35.492c0-1.245 1.009-2.254 2.254-2.254h59.492c1.245 0 2.254 1.009 2.254 2.254v35.492c0 1.245-1.009 2.254-2.254 2.254h-59.492c-1.245 0-2.254-1.009-2.254-2.254z" style="fill:none;stroke-width:.1px;stroke:#00a5ff"/>
    </g>
    <g transform="matrix(0 -4.1667 -4.1667 0 825 29.167)">
     <circle cx="-29" r="29" style="fill:none;stroke-width:.1px;stroke:#00a5ff"/>
    </g>
   </g>
   <g transform="matrix(.26087 0 0 .26087 -91.174 -3.1725)">
    <g id="color">
     <rect x="391.67" y="54.167" width="191.67" height="191.67" style="fill:#b3cc47"/>
    </g>
   </g>
   <g id="line" transform="matrix(1.2395 0 0 1.2395 -8.4549 -8.4549)">
    <g transform="matrix(.21046 0 0 .21046 -66.735 4.2617)">
     <rect x="391.67" y="54.167" width="191.67" height="191.67" style="fill:none;stroke-linecap:round;stroke-linejoin:round;stroke-miterlimit:1.5;stroke-width:7.67px;stroke:#000"/>
    </g>
    <g transform="matrix(.21352 0 0 .21352 -137.86 12.162)">
     <path d="m784.48 87.889 85.605 9e-3 -85.605-9e-3z" style="fill:none;stroke-linecap:round;stroke-linejoin:round;stroke-miterlimit:1.5;stroke-width:7.56px;stroke:#000"/>
    </g>
    <g transform="matrix(.21352 0 0 .21352 -137.86 20.276)">
     <path d="m783.41 89.647 86.761-0.047-86.761 0.047z" style="fill:none;stroke-linecap:round;stroke-linejoin:round;stroke-miterlimit:1.5;stroke-width:7.56px;stroke:#000"/>
    </g>
    <g transform="matrix(.21352 0 0 .21352 -137.86 4.23)">
     <path d="m754.3 215.71c14.585-12.417 24.189-30.866 26.536-46.216 2.799-18.313 2.862-41.015 2.838-44.448-0.165-23.159-0.775-39.306-0.775-39.306l88.187 0.091s-0.06 89.015-0.081 119.73c-4e-3 5.674-4.605 10.272-10.279 10.272h-23.502" style="fill:none;stroke-linecap:round;stroke-linejoin:round;stroke-miterlimit:1.5;stroke-width:7.56px;stroke:#000"/>
    </g>
   </g>
  </g>
 </g>
</svg>
