<svg style="clip-rule:evenodd;fill-rule:evenodd;stroke-miterlimit:10" version="1.1" viewBox="0 0 300 300" xmlns="http://www.w3.org/2000/svg" xmlns:serif="http://www.serif.com/">
 <g transform="translate(-1687.5 -337.5)">
  <g transform="matrix(4.1667 0 0 4.1667 1687.5 337.5)" serif:id="1F234">
   <rect width="72" height="72" style="fill:none"/>
   <g id="grid">
    <path d="m0 72h72v-72h-72v72zm4-68h64.001v64.001h-64.001v-64.001z" style="fill-rule:nonzero;fill:#b3b3b3"/>
    <g transform="translate(59.077 10.958)">
     <path d="m0 50h-46.154c-1.062 0-1.923-0.86-1.923-1.923v-46.153c0-1.063 0.861-1.924 1.923-1.924h46.154c1.062 0 1.923 0.861 1.923 1.924v46.153c0 1.063-0.861 1.923-1.923 1.923z" style="fill:none;stroke-width:.1px;stroke:#00a5ff"/>
    </g>
    <g transform="translate(53.746 4)">
     <path d="m0 64h-35.492c-1.245 0-2.254-1.009-2.254-2.254v-59.492c0-1.245 1.009-2.254 2.254-2.254h35.492c1.245 0 2.254 1.009 2.254 2.254v59.492c0 1.245-1.009 2.254-2.254 2.254z" style="fill:none;stroke-width:.1px;stroke:#00a5ff"/>
    </g>
    <g transform="translate(4 18.254)">
     <path d="m0 35.492v-35.492c0-1.245 1.009-2.254 2.254-2.254h59.492c1.245 0 2.254 1.009 2.254 2.254v35.492c0 1.245-1.009 2.254-2.254 2.254h-59.492c-1.245 0-2.254-1.009-2.254-2.254z" style="fill:none;stroke-width:.1px;stroke:#00a5ff"/>
    </g>
    <g transform="matrix(0,-1,-1,0,36,7)">
     <circle cx="-29" r="29" style="fill:none;stroke-width:.1px;stroke:#00a5ff"/>
    </g>
   </g>
   <g id="color" transform="matrix(.26087 0 0 .26087 -91.174 -3.1725)">
    <rect x="391.67" y="54.167" width="191.67" height="191.67" style="fill:#e5604d"/>
   </g>
   <g id="line" transform="matrix(.2593 0 0 .2593 -439.98 -90.088)">
    <g transform="matrix(.98876 0 0 1.006 1355.2 335.19)">
     <rect x="391.67" y="54.167" width="191.67" height="191.67" style="fill:none;stroke-linecap:round;stroke-linejoin:round;stroke-miterlimit:1.5;stroke-width:7.73px;stroke:#000"/>
    </g>
    <g transform="matrix(.96319 0 0 .96319 66.426 19.195)">
     <path d="m1803.7 467.62 68.323 0.267" style="fill:none;stroke-linecap:round;stroke-linejoin:round;stroke-miterlimit:1.5;stroke-width:8.01px;stroke:#fff"/>
    </g>
    <g transform="matrix(.96319 0 0 .96319 66.426 15.581)">
     <path d="m1886.1 501.52v43.6c0 2.292-1.86 4.153-4.152 4.153h-87.633c-2.292 0-4.153-1.861-4.153-4.153v-43.6c0-2.292 1.861-4.152 4.153-4.152h87.633c2.292 0 4.152 1.86 4.152 4.152z" style="fill-opacity:0;stroke-linecap:round;stroke-linejoin:round;stroke-miterlimit:1.5;stroke-width:8.01px;stroke:#fff"/>
    </g>
    <g transform="matrix(.96319 0 0 .96319 66.426 19.195)">
     <path d="m1770.3 469.48c30.689-12.943 67.101-48.968 67.101-48.968s35.642 33.757 69.267 50.569" style="fill:none;stroke-linecap:round;stroke-linejoin:round;stroke-miterlimit:1.5;stroke-width:8.01px;stroke:#fff"/>
    </g>
   </g>
  </g>
 </g>
</svg>
