<svg style="clip-rule:evenodd;fill-rule:evenodd;stroke-miterlimit:10" version="1.1" viewBox="0 0 300 300" xmlns="http://www.w3.org/2000/svg" xmlns:serif="http://www.serif.com/">
 <g transform="translate(-337.5 -675)">
  <g transform="matrix(4.1667 0 0 4.1667 337.5 675)" serif:id="3297">
   <rect width="72" height="72" style="fill:none"/>
   <g id="grid">
    <path d="m0 72h72v-72h-72v72zm4-68h64.001v64.001h-64.001v-64.001z" style="fill-rule:nonzero;fill:#b3b3b3"/>
    <g transform="translate(59.077 10.958)">
     <path d="m0 50h-46.154c-1.062 0-1.923-0.86-1.923-1.923v-46.153c0-1.063 0.861-1.924 1.923-1.924h46.154c1.062 0 1.923 0.861 1.923 1.924v46.153c0 1.063-0.861 1.923-1.923 1.923z" style="fill:none;stroke-width:.1px;stroke:#00a5ff"/>
    </g>
    <g transform="translate(53.746 4)">
     <path d="m0 64h-35.492c-1.245 0-2.254-1.009-2.254-2.254v-59.492c0-1.245 1.009-2.254 2.254-2.254h35.492c1.245 0 2.254 1.009 2.254 2.254v59.492c0 1.245-1.009 2.254-2.254 2.254z" style="fill:none;stroke-width:.1px;stroke:#00a5ff"/>
    </g>
    <g transform="translate(4 18.254)">
     <path d="m0 35.492v-35.492c0-1.245 1.009-2.254 2.254-2.254h59.492c1.245 0 2.254 1.009 2.254 2.254v35.492c0 1.245-1.009 2.254-2.254 2.254h-59.492c-1.245 0-2.254-1.009-2.254-2.254z" style="fill:none;stroke-width:.1px;stroke:#00a5ff"/>
    </g>
    <g transform="matrix(0,-1,-1,0,36,7)">
     <circle cx="-29" r="29" style="fill:none;stroke-width:.1px;stroke:#00a5ff"/>
    </g>
   </g>
   <g id="color" transform="matrix(.3004 0 0 .3004 -521.57 -12.272)">
    <circle cx="1856" cy="160.55" r="83.221" style="fill:#e5604d"/>
   </g>
   <g id="line" transform="matrix(1.087 0 0 1.087 -3.1301 -3.1723)">
    <g transform="matrix(.27637 0 0 .27637 -476.96 -8.3718)">
     <circle cx="1856" cy="160.55" r="83.221" style="fill:none;stroke-linecap:round;stroke-linejoin:round;stroke-miterlimit:1.5;stroke-width:6.66px;stroke:#000"/>
    </g>
    <g transform="matrix(.22931 0 0 .22931 -75.523 -152.97)">
     <path d="m494.09 820.73s3.805 48.348-27.754 62.88" style="fill:none;stroke-linecap:round;stroke-linejoin:round;stroke-miterlimit:1.5;stroke-width:8.02px;stroke:#fff"/>
    </g>
    <g transform="matrix(.22931 0 0 .22931 -75.523 -152.97)">
     <path d="m517.66 818.87s0.172 45.829 0.225 59.85c8e-3 2.227 1.816 4.027 4.042 4.027h17.749c2.104 0 3.955-1.389 4.542-3.409 1.179-4.156 2.882-11.3 2.241-17.025" style="fill:none;stroke-linecap:round;stroke-linejoin:round;stroke-miterlimit:1.5;stroke-width:8.33px;stroke:#fff"/>
    </g>
    <g transform="matrix(.22931 0 0 .22931 -75.523 -152.97)">
     <path d="m446.07 883.61 0.18-62.88" style="fill:none;stroke-linecap:round;stroke-linejoin:round;stroke-miterlimit:1.5;stroke-width:8.02px;stroke:#fff"/>
    </g>
    <g transform="matrix(.22747 0 0 .23713 -74.672 -158.94)">
     <path d="m538.78 775.33v37.343c0 1.963-1.661 3.557-3.707 3.557h-52.601c-2.046 0-3.708-1.594-3.708-3.557v-37.343c0-1.962 1.662-3.556 3.708-3.556h52.601c2.046 0 3.707 1.594 3.707 3.556z" style="fill-opacity:0;stroke-linecap:round;stroke-linejoin:round;stroke-miterlimit:1.5;stroke-width:7.92px;stroke:#fff"/>
    </g>
    <g transform="matrix(.22931 0 0 .22931 -75.523 -152.97)">
     <path d="m447.48 818.87 22.248 20.74" style="fill:none;stroke-linecap:round;stroke-linejoin:round;stroke-miterlimit:1.5;stroke-width:8.02px;stroke:#fff"/>
    </g>
    <g transform="matrix(.22931 0 0 .22931 -75.523 -152.97)">
     <path d="m423.53 788.52 42.8 0.094s-11.789 30.732-46.948 55.338" style="fill:none;stroke-linecap:round;stroke-linejoin:round;stroke-miterlimit:1.5;stroke-width:8.02px;stroke:#fff"/>
    </g>
    <g transform="matrix(.22931 0 0 .22931 -75.523 -152.97)">
     <path d="m446.17 762.64 0.084 24.181" style="fill:none;stroke-linecap:round;stroke-linejoin:round;stroke-miterlimit:1.5;stroke-width:8.02px;stroke:#fff"/>
    </g>
   </g>
  </g>
 </g>
</svg>
