<svg style="clip-rule:evenodd;fill-rule:evenodd;stroke-miterlimit:10" version="1.1" viewBox="0 0 300 300" xmlns="http://www.w3.org/2000/svg" xmlns:serif="http://www.serif.com/">
 <g transform="translate(-675 -675)">
  <g transform="matrix(4.1667 0 0 4.1667 675 675)" serif:id="3299">
   <rect width="72" height="72" style="fill:none"/>
   <g id="grid">
    <path d="m0 72h72v-72h-72v72zm4-68h64.001v64.001h-64.001v-64.001z" style="fill-rule:nonzero;fill:#b3b3b3"/>
    <g transform="translate(59.077 10.958)">
     <path d="m0 50h-46.154c-1.062 0-1.923-0.86-1.923-1.923v-46.153c0-1.063 0.861-1.924 1.923-1.924h46.154c1.062 0 1.923 0.861 1.923 1.924v46.153c0 1.063-0.861 1.923-1.923 1.923z" style="fill:none;stroke-width:.1px;stroke:#00a5ff"/>
    </g>
    <g transform="translate(53.746 4)">
     <path d="m0 64h-35.492c-1.245 0-2.254-1.009-2.254-2.254v-59.492c0-1.245 1.009-2.254 2.254-2.254h35.492c1.245 0 2.254 1.009 2.254 2.254v59.492c0 1.245-1.009 2.254-2.254 2.254z" style="fill:none;stroke-width:.1px;stroke:#00a5ff"/>
    </g>
    <g transform="translate(4 18.254)">
     <path d="m0 35.492v-35.492c0-1.245 1.009-2.254 2.254-2.254h59.492c1.245 0 2.254 1.009 2.254 2.254v35.492c0 1.245-1.009 2.254-2.254 2.254h-59.492c-1.245 0-2.254-1.009-2.254-2.254z" style="fill:none;stroke-width:.1px;stroke:#00a5ff"/>
    </g>
    <g transform="matrix(0,-1,-1,0,36,7)">
     <circle cx="-29" r="29" style="fill:none;stroke-width:.1px;stroke:#00a5ff"/>
    </g>
   </g>
   <g id="color" transform="matrix(.3004 0 0 .3004 -521.57 -12.272)">
    <circle cx="1856" cy="160.55" r="83.221" style="fill:#e5604d"/>
   </g>
   <g id="line" transform="matrix(.2603 0 0 .2603 -178.95 -178.83)">
    <g transform="matrix(1.154 0 0 1.154 -1316.2 639.85)">
     <circle cx="1856" cy="160.55" r="83.221" style="fill:none;stroke-linecap:round;stroke-linejoin:round;stroke-miterlimit:1.5;stroke-width:7.24px;stroke:#000"/>
    </g>
    <g transform="matrix(.95934 0 0 .95934 34.436 35.262)">
     <path d="m876.88 810.71s13.519 23.308 13.822 36.63" style="fill:none;stroke-linecap:round;stroke-linejoin:round;stroke-miterlimit:1.5;stroke-width:8.01px;stroke:#fff"/>
    </g>
    <g transform="matrix(.95934 0 0 .95934 34.436 35.262)">
     <path d="m835.75 788.89s0.345 70.197 0.443 90.057c0.014 2.9 2.317 5.272 5.216 5.37 9.593 0.322 29.347 0.815 31.76-0.475 4.377-2.341 4.055-20.433 4.055-20.433" style="fill:none;stroke-linecap:round;stroke-linejoin:round;stroke-miterlimit:1.5;stroke-width:8.01px;stroke:#fff"/>
    </g>
    <g transform="matrix(.95934 0 0 .95934 34.436 35.262)">
     <path d="m880.3 768.63s-14.717 72.45-74.385 111.04" style="fill:none;stroke-linecap:round;stroke-linejoin:round;stroke-miterlimit:1.5;stroke-width:8.01px;stroke:#fff"/>
    </g>
    <g transform="matrix(.95934 0 0 .95934 34.436 35.262)">
     <path d="m832.64 761.14s17.555 10.429 25.85 19.928" style="fill:none;stroke-linecap:round;stroke-linejoin:round;stroke-miterlimit:1.5;stroke-width:8.01px;stroke:#fff"/>
    </g>
    <g transform="matrix(.95934 0 0 .95934 34.436 35.262)">
     <path d="m821.3 811.58s1.026 18.863-9.008 39.6" style="fill:none;stroke-linecap:round;stroke-linejoin:round;stroke-miterlimit:1.5;stroke-width:8.01px;stroke:#fff"/>
    </g>
    <g transform="matrix(.95934 0 0 .95934 34.436 35.262)">
     <path d="m784.51 811.58s11.639 10.167 21.405 22.609" style="fill:none;stroke-linecap:round;stroke-linejoin:round;stroke-miterlimit:1.5;stroke-width:8.01px;stroke:#fff"/>
    </g>
    <g transform="matrix(.95934 0 0 .95934 34.436 35.262)">
     <path d="m760.96 856.53c15.519-22.609 26.356-54.049 26.356-54.049" style="fill:none;stroke-linecap:round;stroke-linejoin:round;stroke-miterlimit:1.5;stroke-width:8.01px;stroke:#fff"/>
    </g>
    <g transform="matrix(.95934 0 0 .95934 34.436 35.262)">
     <path d="m762.7 802.08 45.62-7e-3" style="fill:none;stroke-linecap:round;stroke-linejoin:round;stroke-miterlimit:1.5;stroke-width:8.01px;stroke:#fff"/>
    </g>
    <g transform="matrix(.95934 0 0 .95934 34.436 35.262)">
     <path d="m787.92 771.57-0.064 113.98" style="fill:none;stroke-linecap:round;stroke-linejoin:round;stroke-miterlimit:1.5;stroke-width:8.01px;stroke:#fff"/>
    </g>
    <g transform="matrix(.95934 0 0 .95934 34.436 35.262)">
     <path d="m763.77 775.05c23.145-3.344 39.891-9.712 39.891-9.712" style="fill:none;stroke-linecap:round;stroke-linejoin:round;stroke-miterlimit:1.5;stroke-width:8.01px;stroke:#fff"/>
    </g>
   </g>
  </g>
 </g>
</svg>
