<svg id="emoji" version="1.1" viewBox="0 0 72 72" xmlns="http://www.w3.org/2000/svg">
 <g id="grid">
  <path d="m68 4v64h-64v-64h64m4-4h-72v72h72z" fill="#b3b3b3"/>
  <path d="m12.923 10.958h46.154c1.0621 0 1.9231 0.861 1.9231 1.9231v46.154c0 1.0621-0.861 1.9231-1.9231 1.9231h-46.154c-1.0621 0-1.9231-0.861-1.9231-1.9231v-46.154c0-1.062 0.861-1.923 1.923-1.923z" fill="none" stroke="#00a5ff" stroke-miterlimit="10" stroke-width=".1"/>
  <path d="M 18.2537,4 H 53.7463 C 54.991,4 56,5.009 56,6.2537 V 65.7463 C 56,66.991 54.991,68 53.7463,68 H 18.2537 C 17.009,68 16,66.991 16,65.7463 V 6.2537 C 16,5.009 17.009,4 18.2537,4 Z" fill="none" stroke="#00a5ff" stroke-miterlimit="10" stroke-width=".1"/>
  <path d="M 68,18.2537 V 53.7463 C 68,54.991 66.991,56 65.7463,56 H 6.2537 C 5.009,56 4,54.991 4,53.7463 V 18.2537 C 4,17.009 5.009,16 6.2537,16 H 65.7463 C 66.991,16 68,17.009 68,18.2537 Z" fill="none" stroke="#00a5ff" stroke-miterlimit="10" stroke-width=".1"/>
  <circle cx="36" cy="36" r="29" fill="none" stroke="#00a5ff" stroke-miterlimit="10" stroke-width=".1"/>
 </g>
 <g id="line-supplement" transform="translate(-.1891 -4.0002)" fill="none" stroke="#000" stroke-linecap="round" stroke-linejoin="round" stroke-width="2">
  <path transform="translate(.1891 4.0002)" d="m8.1093 36.234c-2.5924 2.3926-1.5443 14.619 28.676 1.047"/>
  <path transform="translate(.1891 4.0002)" d="m36.151 45.52c34.096-7.9449 33.327-35.901 16.352-30.052"/>
 </g>
 <g id="color">
  <path d="m11.24 36.739c0.5837-5.492 5.509-9.471 11-8.887 0.881 0.0936 1.717 0.3098 2.508 0.6113 1.407-7.636 8.471-13.02 16.32-12.19 6.705 0.7126 11.91 5.74 13.14 12.03 0.3856-0.0038 0.7741 0.0084 1.167 0.0501 5.492 0.5836 9.471 5.509 8.887 11-0.3337 3.141-2.091 5.782-4.558 7.363 0.0659 0.8881 0.066 1.792-0.0314 2.709-0.8755 8.238-8.263 14.21-16.5 13.33-3.578-0.3802-6.725-1.991-9.072-4.364-0.8268 0.6583-1.8393 1.1991-2.8403 1.5711-5.9944 2.218-10.265-1.6513-12.063-4.5091-1.0304-1.5811-1.4991-3.732-1.2645-5.94 0.0786-0.7397 0.2418-1.449 0.4687-2.126-4.569-1.322-7.676-5.758-7.156-10.65z" fill="#8967aa"/>
  <path d="m9.4902 29.7c0.5837-5.492 5.509-9.471 11-8.887 0.881 0.0936 1.717 0.3098 2.508 0.6113 1.407-7.636 8.471-13.02 16.32-12.19 6.705 0.7126 11.91 5.74 13.14 12.03 0.3856-0.0038 0.7741 0.0084 1.167 0.0501 5.492 0.5836 9.471 5.509 8.887 11-0.3337 3.141-2.091 5.782-4.558 7.363 0.0659 0.8881 0.066 1.792-0.0314 2.709-0.8755 8.238-8.263 14.21-16.5 13.33-3.578-0.3802-6.725-1.991-9.072-4.364-0.8268 0.6583-1.757 2.187-2.758 2.559-5.451 1.263-10.61-0.9425-13.1-5.334-1.042-1.779-0.5444-3.895-0.3098-6.103 0.0786-0.7397 0.2418-1.449 0.4687-2.126-4.569-1.322-7.676-5.758-7.156-10.65z" fill="#b399c8"/>
  <path transform="translate(-.875 11.562)" d="m35.974 27.666-3.7973-1.7259-3.5745 2.1496 0.46805-4.1448-3.149-2.7353 4.0865-0.83566 1.6283-3.8401 2.0576 3.6283 4.1554 0.36196-2.8149 3.0781z" fill="#fcea2b" stroke-linecap="round" stroke-linejoin="round" stroke-width="2"/>
  <path d="m8.1091 36.234c-2.5924 2.3926-1.5443 14.619 28.676 1.047" fill="none" stroke="#ea5a47" stroke-linecap="round" stroke-linejoin="round" stroke-width="2"/>
  <path d="m36.151 45.52c34.096-7.9449 33.327-35.901 16.352-30.052" fill="none" stroke="#ea5a47" stroke-linecap="round" stroke-linejoin="round" stroke-width="2"/>
  <path d="m61.625 51-3.1786-2.6893-4.0174 1.0938 1.5755-3.8541-2.2817-3.4828 4.1523 0.30738 2.6072-3.2463 0.99079 4.0441 3.8931 1.4765-3.54 2.192z" fill="#ea5a47" stroke-linecap="round" stroke-linejoin="round" stroke-width="2"/>
  <path d="m16.423 29.487-3.4175-2.3783-3.8967 1.467 1.2059-3.9852-2.5993-3.2526 4.1628-0.08466 2.2902-3.4772 1.3669 3.9329 4.0147 1.1036-3.318 2.5153z" fill="#ea5a47" stroke-linecap="round" stroke-linejoin="round" stroke-width="2"/>
  <path transform="rotate(15.804 37.951 32.691)" d="m27.754 20.506-3.2798-0.27952-2.0896 2.5433-0.74767-3.2056-3.0646-1.2014 2.8177-1.7017 0.1956-3.2859 2.4891 2.1539 3.1855-0.82936-1.2793 3.0329z" fill="#ea5a47" stroke-linecap="round" stroke-linejoin="round" stroke-width="2"/>
 </g>
 <g id="line" fill="none" stroke="#000" stroke-linecap="round" stroke-linejoin="round" stroke-width="2">
  <path d="m16.652 40.637c-3.962-1.1464-7.0434-5.4155-7.145-9.5119m9.9671-10.112c0.881 0.0936 2.7335 0.39819 3.5245 0.69969 0.26054-1.414 0.6213-2.5632 1.2388-3.7976m8.6945-7.6864c1.9911-0.67613 4.1572-0.94172 6.3867-0.70596 6.705 0.7126 11.91 5.74 13.14 12.03 0.3856-0.0038 0.7741 0.0084 1.167 0.0501 2.703 0.28723 5.0395 1.6262 6.6459 3.5667m2.2411 7.4333c-0.20327 1.9134-0.9348 3.6412-2.0332 5.0569m-6.5508 13.602c-3.0995 3.7305-7.3218 5.2966-12.505 4.7428-3.578-0.3802-6.725-1.991-9.072-4.364-0.8268 0.6583-1.8393 1.1991-2.8403 1.5711-5.9944 2.218-10.265-1.6513-12.063-4.5091-0.54143-0.83081-0.68472-1.3549-0.85124-2.1167"/>
  <path d="m64.142 38.373c0.0071 0.09598 0.2379 0.64476-0.58745 3.4789m-4.2689 9.7278c-1.8171 7.098-8.6127 11.977-16.113 11.176-3.578-0.3802-6.725-1.991-9.072-4.364-0.8268 0.6583-1.8393 1.1991-2.8403 1.5711-5.9944 2.218-10.265-1.6513-12.063-4.5091"/>
 </g>
</svg>
