<svg id="emoji" version="1.1" viewBox="0 0 72 72" xmlns="http://www.w3.org/2000/svg">
 <g id="grid">
  <path d="m68 4v64h-64v-64h64m4-4h-72v72h72z" fill="#b3b3b3"/>
  <path d="m12.923 10.958h46.154c1.0621 0 1.9231 0.861 1.9231 1.9231v46.154c0 1.0621-0.861 1.9231-1.9231 1.9231h-46.154c-1.0621 0-1.9231-0.861-1.9231-1.9231v-46.154c0-1.062 0.861-1.923 1.923-1.923z" fill="none" stroke="#00a5ff" stroke-miterlimit="10" stroke-width=".1"/>
  <path d="M 18.2537,4 H 53.7463 C 54.991,4 56,5.009 56,6.2537 V 65.7463 C 56,66.991 54.991,68 53.7463,68 H 18.2537 C 17.009,68 16,66.991 16,65.7463 V 6.2537 C 16,5.009 17.009,4 18.2537,4 Z" fill="none" stroke="#00a5ff" stroke-miterlimit="10" stroke-width=".1"/>
  <path d="M 68,18.2537 V 53.7463 C 68,54.991 66.991,56 65.7463,56 H 6.2537 C 5.009,56 4,54.991 4,53.7463 V 18.2537 C 4,17.009 5.009,16 6.2537,16 H 65.7463 C 66.991,16 68,17.009 68,18.2537 Z" fill="none" stroke="#00a5ff" stroke-miterlimit="10" stroke-width=".1"/>
  <circle cx="36" cy="36" r="29" fill="none" stroke="#00a5ff" stroke-miterlimit="10" stroke-width=".1"/>
 </g>
 <g id="line-supplement" transform="translate(-.1891 -4.0002)" fill="none" stroke="#000" stroke-linecap="round" stroke-linejoin="round" stroke-width="2">
  <path transform="translate(.1891 4.0002)" d="m8.1093 36.234c-2.5924 2.3926-1.5443 14.619 28.676 1.047"/>
  <path transform="translate(.1891 4.0002)" d="m36.151 45.52c34.096-7.9449 33.327-35.901 16.352-30.052"/>
  <path transform="translate(.1891 4.0002)" d="m61.625 51-3.1786-2.6893-4.0174 1.0938 1.5755-3.8541-2.2817-3.4828 4.1523 0.30738 2.6072-3.2463 0.99079 4.0441 3.8931 1.4765-3.54 2.192z" fill="#000" stroke="none" stroke-linecap="round" stroke-linejoin="round" stroke-width="2"/>
  <path transform="translate(.1891 4.0002)" d="m16.423 29.487-3.4175-2.3783-3.8967 1.467 1.2059-3.9852-2.5993-3.2526 4.1628-0.08466 2.2902-3.4772 1.3669 3.9329 4.0147 1.1036-3.318 2.5153z" fill="#000" stroke="none" stroke-linecap="round" stroke-linejoin="round" stroke-width="2"/>
  <path transform="translate(.1891 4.0002)" d="m31.458 18.189-3.0797-1.1622-2.7033 1.8781 0.15363-3.2881-2.6216-1.9906 3.1746-0.86998 1.0831-3.1084 1.8084 2.7504 3.291 0.06955-2.0569 2.5698z" fill="#000" stroke="none" stroke-linecap="round" stroke-linejoin="round" stroke-width="2"/>
  <path d="m35.288 43.228-3.7973-1.7259-3.5745 2.1496 0.46805-4.1448-3.149-2.7353 4.0865-0.83566 1.6283-3.8401 2.0576 3.6283 4.1554 0.36196-2.8149 3.0781z" fill="#000" stroke="none" stroke-linecap="round" stroke-linejoin="round" stroke-width="2"/>
 </g>
 <g id="color">
  <path d="m11.24 36.739c0.5837-5.492 5.509-9.471 11-8.887 0.881 0.0936 1.717 0.3098 2.508 0.6113 1.407-7.636 8.471-13.02 16.32-12.19 6.705 0.7126 11.91 5.74 13.14 12.03 0.3856-0.0038 0.7741 0.0084 1.167 0.0501 4.2895 0.45582 6.7707 3.873 8.8452 7.3816 0.49859 0.84324 1.5071 3.6456 0.66048 3.4416-0.15828 1.4898-0.0729 3.1257-0.95752 4.1695-1.0891 1.285-2.9223 2.5392-4.2192 3.3703 0.0659 0.8881 1.2691 1.3936 0.5936 4.8262-0.09827 0.92468-0.90359-0.29637-1.1579 0.56472-2.0117 6.8104-8.6546 11.429-15.967 10.648-3.578-0.3802-6.725-1.991-9.072-4.364-0.8268 0.6583-1.8393 1.1991-2.8403 1.5711-5.9944 2.218-10.265-1.6513-12.063-4.5091-0.44512 0.58722-0.88498 0.41314-0.97811 0.13752-0.15636-0.46274-0.56408-0.92678-0.58516-2.5555-0.02219-1.7144 0.34527-2.1389 0.35388-2.2719 0.04371-0.67496-0.12963-0.54877-0.05511-1.2502 0.07859-0.7397 0.2418-1.449 0.4687-2.126-4.569-1.322-7.676-5.758-7.156-10.65z" fill="#8967aa"/>
  <path d="m8.5371 30.794c0.19975-6.4476 5.7823-9.7258 10.214-10.64 0.04366-9e-3 -0.36913 0.08316 0.12889-0.02268 0.47203-0.10032 0.40906-0.10693 0.45986-0.11053 0.79196-0.05602 1.0655 0.4505 1.9315 0.5426 0.95086 0.30317 0.9361 0.55981 1.7271 0.86131-1.1038-7.4656 8.6999-14.581 16.32-12.19 1.1706-2.5613 11.91 5.74 13.14 12.03 0.3856-0.0038 0.7741 0.0084 1.167 0.0501 2.0355-0.0081 3.5981 0.33137 4.8342 0.97413 0.4324 0.22483 0.67666 0.60202 1.0354 0.89915 0.52596 0.43558 0.99571 1.8751 1.5287 1.4124 0.22251-0.19317 1.7405 3.9703 2.3217 6.8477 0.16218 0.80299 0.1223 0.95609 0.11016 1.05-1.017 7.8652-5.5012 7.1796-5.5012 7.1796 0.0659 0.8881 0.066 1.792-0.0314 2.709-0.27904 2.6256-0.05519 0.8253 0.0693 3.8008 0.07112 1.6998-0.0093 2.0542-1.2478 3.51-4.4641 5.2479-3.3904 1.977-3.7628 2.3085-3.0473 2.7121-7.1832 4.1782-11.559 3.7107-3.578-0.3802-6.725-1.991-9.072-4.364-0.8268 0.6583-1.757 2.187-2.758 2.559-5.451 1.263-10.848-1.1726-13.338-5.5641-1.042-1.779-0.79229-3.3555-0.55769-5.5635 0.0786-0.7397 0.72794-1.7584 0.95484-2.4354-4.569-1.322-8.1146-9.5546-8.1146-9.5546z" fill="#b399c8"/>
  <path d="m8.1091 36.234c-2.5924 2.3926-1.5443 14.619 28.676 1.047" fill="none" stroke="#ea5a47" stroke-linecap="round" stroke-linejoin="round" stroke-width="2"/>
  <path d="m36.151 45.52c34.096-7.9449 33.327-35.901 16.352-30.052" fill="none" stroke="#ea5a47" stroke-linecap="round" stroke-linejoin="round" stroke-width="2"/>
  <path d="m61.625 51-3.1786-2.6893-4.0174 1.0938 1.5755-3.8541-2.2817-3.4828 4.1523 0.30738 2.6072-3.2463 0.99079 4.0441 3.8931 1.4765-3.54 2.192z" fill="#ea5a47" stroke-linecap="round" stroke-linejoin="round" stroke-width="2"/>
  <path d="m16.423 29.487-3.4175-2.3783-3.8967 1.467 1.2059-3.9852-2.5993-3.2526 4.1628-0.08466 2.2902-3.4772 1.3669 3.9329 4.0147 1.1036-3.318 2.5153z" fill="#ea5a47" stroke-linecap="round" stroke-linejoin="round" stroke-width="2"/>
  <path transform="rotate(15.804,37.951,32.691)" d="m27.754 20.506-3.2798-0.27952-2.0896 2.5433-0.74767-3.2056-3.0646-1.2014 2.8177-1.7017 0.1956-3.2859 2.4891 2.1539 3.1855-0.82936-1.2793 3.0329z" fill="#ea5a47" stroke-linecap="round" stroke-linejoin="round" stroke-width="2"/>
  <path transform="translate(-.875 11.562)" d="m35.974 27.666-3.7973-1.7259-3.5745 2.1496 0.46805-4.1448-3.149-2.7353 4.0865-0.83566 1.6283-3.8401 2.0576 3.6283 4.1554 0.36196-2.8149 3.0781z" fill="#fcea2b" stroke-linecap="round" stroke-linejoin="round" stroke-width="2"/>
 </g>
 <g id="line" fill="none" stroke="#000" stroke-linecap="round" stroke-linejoin="round" stroke-width="2">
  <path d="m16.652 40.637c-3.962-1.1464-7.0434-5.4155-7.145-9.5119m9.9671-10.112c0.881 0.0936 2.7335 0.39819 3.5245 0.69969 0.26054-1.414 0.6213-2.5632 1.2388-3.7976m8.6945-7.6864c1.9911-0.67613 4.1572-0.94172 6.3867-0.70596 0.31685 0.033674 0.63034 0.076983 0.94023 0.12961m17.449 13.313c0.97899 0.58717 1.8443 1.3352 2.5633 2.2038m2.2411 7.4333c-0.20327 1.9134-0.9348 3.6412-2.0332 5.0569m-6.5508 13.602c-3.0995 3.7305-7.3218 5.2966-12.505 4.7428-3.578-0.3802-6.725-1.991-9.072-4.364-0.8268 0.6583-1.8393 1.1991-2.8403 1.5711-5.9944 2.218-10.265-1.6513-12.063-4.5091-0.54143-0.83081-0.68472-1.3549-0.85124-2.1167"/>
  <path d="m64.142 38.373c0.0071 0.09598 0.2379 0.64476-0.58745 3.4789m-4.2689 9.7278c-1.8171 7.098-8.6127 11.977-16.113 11.176-3.578-0.3802-6.725-1.991-9.072-4.364-0.8268 0.6583-1.8393 1.1991-2.8403 1.5711-5.9944 2.218-10.265-1.6513-12.063-4.5091"/>
  <polyline transform="rotate(3.5042 33.77 220.7)" points="42.396 20.826 44.379 16.789 46.405 18.941 48.896 13.869" fill="none" stroke="#000" stroke-linecap="round" stroke-linejoin="round" stroke-width="2"/>
  <polyline transform="rotate(22.6 47.201 53.921)" points="29.308 21.018 26.683 17.367 29.536 16.594 26.237 12.006" fill="none" stroke="#000" stroke-linecap="round" stroke-linejoin="round" stroke-width="2"/>
  <polyline transform="rotate(22.6 47.201 53.921)" points="36.773 19.751 37.403 15.298 34.517 15.938 35.309 10.343" fill="none" stroke="#000" stroke-linecap="round" stroke-linejoin="round" stroke-width="2"/>
 </g>
</svg>
