<svg id="emoji" version="1.1" viewBox="0 0 72 72" xmlns="http://www.w3.org/2000/svg">
 <g id="grid">
  <path d="M68,4V68H4V4H68m4-4H0V72H72Z" fill="#b3b3b3"/>
  <rect x="11" y="10.958" width="50" height="50" rx="1.9231" fill="none" stroke="#00a5ff" stroke-miterlimit="10" stroke-width=".1"/>
  <rect x="16" y="4" width="40" height="64" rx="2.2537" fill="none" stroke="#00a5ff" stroke-miterlimit="10" stroke-width=".1"/>
  <rect x="4" y="16" width="64" height="40" rx="2.2537" fill="none" stroke="#00a5ff" stroke-miterlimit="10" stroke-width=".1"/>
  <circle cx="36" cy="36" r="29" fill="none" stroke="#00a5ff" stroke-miterlimit="10" stroke-width=".1"/>
 </g>
 <g id="color">
  <path d="m36 13c-12.682 0-23 10.318-23 23 0 12.682 10.318 23 23 23 12.682 0 23-10.318 23-23 0-12.682-10.318-23-23-23z" fill="#FCEA2B"/>
 </g>
 <g id="line" stroke="#000">
  <circle cx="36" cy="36" r="23" fill="none" stroke-miterlimit="10" stroke-width="2"/>
  <path d="m30.534 21.316a8.44 8.44 0 0 0-9.9201 2.0037" fill="none" stroke-linecap="round" stroke-linejoin="round" stroke-width="2"/>
  <path d="m41.5 21.316a8.44 8.44 0 0 1 9.9201 2.0037" fill="none" stroke-linecap="round" stroke-linejoin="round" stroke-width="2"/>
  <line x1="32.031" x2="21.997" y1="26.985" y2="37.019" fill="none" stroke-linecap="round" stroke-linejoin="round" stroke-miterlimit="10" stroke-width="1.9936"/>
  <line x1="21.997" x2="32.031" y1="26.985" y2="37.019" fill="none" stroke-linecap="round" stroke-linejoin="round" stroke-miterlimit="10" stroke-width="1.9936"/>
  <line x1="50.031" x2="39.997" y1="26.985" y2="37.019" fill="none" stroke-linecap="round" stroke-linejoin="round" stroke-miterlimit="10" stroke-width="1.9936"/>
  <line x1="39.997" x2="50.031" y1="26.985" y2="37.019" fill="none" stroke-linecap="round" stroke-linejoin="round" stroke-miterlimit="10" stroke-width="1.9936"/>
  <path d="m35.777 43.681a4.1686 4.1686 0 1 0 5e-4 0z" stroke-miterlimit="10" stroke-width="2.5104"/>
 </g>
</svg>
