<svg id="emoji" version="1.1" viewBox="0 0 72 72" xmlns="http://www.w3.org/2000/svg">
 <g id="grid">
  <path d="M68,4v64H4V4H68 M72,0H0v72h72V0z" fill="#B3B3B3"/>
  <path d="m12.923 10.958h46.154c1.0621 0 1.9231 0.861 1.9231 1.9231v46.154c0 1.0621-0.861 1.9231-1.9231 1.9231h-46.154c-1.0621 0-1.9231-0.861-1.9231-1.9231v-46.154c0-1.062 0.861-1.923 1.923-1.923z" fill="none" stroke="#00A5FF" stroke-miterlimit="10" stroke-width=".1"/>
  <path d="M18.2537,4h35.4926C54.991,4,56,5.009,56,6.2537 v59.4926C56,66.991,54.991,68,53.7463,68H18.2537C17.009,68,16,66.991,16,65.7463V6.2537C16,5.009,17.009,4,18.2537,4z" fill="none" stroke="#00A5FF" stroke-miterlimit="10" stroke-width=".1"/>
  <path d="M68,18.2537v35.4926 C68,54.991,66.991,56,65.7463,56H6.2537C5.009,56,4,54.991,4,53.7463V18.2537C4,17.009,5.009,16,6.2537,16h59.4926 C66.991,16,68,17.009,68,18.2537z" fill="none" stroke="#00A5FF" stroke-miterlimit="10" stroke-width=".1"/>
  <circle cx="36" cy="36" r="29" fill="none" stroke="#00A5FF" stroke-miterlimit="10" stroke-width=".1"/>
 </g>
 <g id="color" transform="translate(-.46572 .27943)">
  <circle cx="36.466" cy="35.721" r="24" fill="#fcea2b" stroke-width="1.0435"/>
  <path transform="matrix(.20412 -.73324 .81256 .1842 -.86334 64.047)" d="m40.452 59.156c-5.09e-4 -0.12086-8e-3 -0.2416-0.0224-0.3616 1.1892-0.20976 2.0835-1.2012 2.17-2.4056-0.0022-0.43004-0.13289-0.84962-0.3752-1.2049 1.7308-0.34983 3.0144-1.813 3.136-3.5746-6e-4 -2.0838-2.062-3.7726-4.6044-3.7721-0.20671 0.0013-0.41319 0.01401-0.6185 0.0381l-1.9844-5.1874-4.953-0.034562-1.9308 5.1867-0.0271-0.0011c-2.5424 0-4.6029 1.69-4.6024 3.7737 0.08872 1.5755 1.1413 2.9324 2.6453 3.41-0.31644 0.38634-0.49134 0.86923-0.4957 1.3686 0.1119 1.316 1.1578 2.3588 2.4742 2.4667-0.0095 0.0992-0.0184 0.1985-0.0184 0.3 6e-4 2.0837 2.062 3.7726 4.6044 3.7721s4.6029-1.69 4.6024-3.774z" fill="#d0cfce" stroke-width="2.3457"/>
  <path transform="matrix(.20412 -.73324 .81256 .1842 -.86334 64.047)" d="m40.452 59.301a3.16 3.16 0 0 0-0.022-0.3612 2.6345 2.6345 0 0 0 2.17-2.4056 2.1583 2.1583 0 0 0-0.3752-1.2049 3.9224 3.9224 0 0 0 3.136-3.5746c-6e-4 -2.0838-2.062-3.7726-4.6044-3.7721a5.6077 5.6077 0 0 0-0.6185 0.0381l-0.6468-1.2458a4.4852 4.4852 0 0 1-2.6157 1.8326 2.1584 2.1584 0 0 1 0.3752 1.205 2.6342 2.6342 0 0 1-2.17 2.4055 3.1454 3.1454 0 0 1 0.0224 0.3617c0 2.0837-2.06 3.7732-4.6024 3.7737a5.479 5.479 0 0 1-1.6588-0.2563 2.0627 2.0627 0 0 0-0.0521 0.44 2.7051 2.7051 0 0 0 2.4743 2.4666c-0.0095 0.0992-0.0184 0.1986-0.0184 0.3 6e-4 2.0837 2.062 3.7725 4.6044 3.772s4.6025-1.691 4.602-3.7747z" fill="#fff" stroke-width="2.3457"/>
  <ellipse cx="36.318" cy="44.553" rx="5.052" ry="5.0025" fill="#fff" stroke-width="2.4967"/>
 </g>
 <g id="line" fill="none" stroke="#000" stroke-linecap="round" stroke-linejoin="round">
  <path d="m43.532 57.738c-2.3599 0.81758-4.8942 1.2617-7.5323 1.2617-12.703 0-23-10.297-23-23s10.297-23 23-23 23 10.297 23 23c0 1.8029-0.20743 3.5573-0.59972 5.2407" stroke-miterlimit="10" stroke-width="2"/>
  <ellipse cx="35.852" cy="44.833" rx="4.0519" ry="4.0025" stroke-miterlimit="10" stroke-width="2"/>
  <path d="m22.88 24.62c5.102-0.06134 7.273-1.882 8.383-3.346" stroke-miterlimit="10" stroke-width="2"/>
  <path d="m49.12 24.62c-5.102-0.06134-7.273-1.882-8.383-3.346" stroke-miterlimit="10" stroke-width="2"/>
  <path d="m48.24 31.21c-6.199 1.47-7.079 1.059-8.868-1.961" stroke-miterlimit="10" stroke-width="2"/>
  <path d="m23.76 31.21c6.199 1.47 7.079 1.059 8.868-1.961" stroke-miterlimit="10" stroke-width="2"/>
  <path transform="matrix(.20412 -.73324 .81256 .1842 -1.3291 64.327)" d="m33.316 43.939-2.0463 4.0853-0.0271-0.0011c-2.5424 0-4.6029 1.6775-4.6024 3.7457 0.09219 1.5685 1.1455 2.9163 2.6453 3.3847-0.3161 0.3826-0.49111 0.86223-0.4957 1.3585 0.11612 1.3109 1.1622 2.346 2.4742 2.4484-0.0095 0.0984-0.0184 0.1971-0.0184 0.2975 6e-4 2.0683 2.062 3.7446 4.6044 3.7441s4.6029-1.6774 4.6024-3.7457c-5.09e-4 -0.11997-8e-3 -0.2398-0.0224-0.3589 1.1856-0.20374 2.0804-1.1881 2.1704-2.3877-0.0024-0.42726-0.13311-0.84394-0.3752-1.196 1.7255-0.34081 3.0097-1.7938 3.136-3.5481-6e-4 -2.0682-2.062-3.7446-4.6044-3.7441-0.2067 0.0013-0.41318 0.01391-0.6185 0.0378l-2.1977-4.1502" stroke-width="2.513"/>
 </g>
</svg>
